<svg width="20" height="20" viewBox="0 0 20 20" fill="none" xmlns="http://www.w3.org/2000/svg">
<path fill-rule="evenodd" clip-rule="evenodd" d="M11.3546 5.61576C11.4564 5.53092 11.5878 5.49001 11.7198 5.50201C11.8518 5.51401 11.9737 5.57795 12.0586 5.67976L15.3916 9.67976C15.4727 9.78201 15.5106 9.91194 15.4972 10.0418C15.4839 10.1716 15.4202 10.2911 15.32 10.3746C15.2197 10.4582 15.0907 10.4992 14.9606 10.489C14.8305 10.4787 14.7095 10.418 14.6236 10.3198L11.2906 6.31976C11.2057 6.2179 11.1648 6.08652 11.1768 5.95451C11.1888 5.82249 11.2527 5.70065 11.3546 5.61576Z" fill="#C7C7C7"/>
<path fill-rule="evenodd" clip-rule="evenodd" d="M11.3546 14.3838C11.2527 14.2989 11.1888 14.177 11.1768 14.045C11.1648 13.913 11.2057 13.7816 11.2906 13.6798L14.6236 9.67977C14.7095 9.58153 14.8305 9.5208 14.9606 9.51054C15.0907 9.50028 15.2197 9.54132 15.32 9.62488C15.4202 9.70845 15.4839 9.82791 15.4972 9.95775C15.5106 10.0876 15.4727 10.2175 15.3916 10.3198L12.0586 14.3198C11.9737 14.4216 11.8518 14.4855 11.7198 14.4975C11.5878 14.5095 11.4564 14.4686 11.3546 14.3838Z" fill="#C7C7C7"/>
<path fill-rule="evenodd" clip-rule="evenodd" d="M15.0076 9.99976C15.0076 10.1324 14.9549 10.2595 14.8611 10.3533C14.7674 10.4471 14.6402 10.4998 14.5076 10.4998L5.00757 10.4998C4.87496 10.4998 4.74778 10.4471 4.65401 10.3533C4.56025 10.2595 4.50757 10.1324 4.50757 9.99975C4.50757 9.86715 4.56025 9.73997 4.65401 9.6462C4.74778 9.55243 4.87496 9.49975 5.00757 9.49975L14.5076 9.49976C14.6402 9.49976 14.7674 9.55243 14.8611 9.6462C14.9549 9.73997 15.0076 9.86715 15.0076 9.99976Z" fill="#C7C7C7"/>
</svg>
