<svg width="16" height="16" viewBox="0 0 16 16" fill="none" xmlns="http://www.w3.org/2000/svg">
<path fill-rule="evenodd" clip-rule="evenodd" d="M12.6367 0.833313C12.348 0.833313 12.0833 0.833313 11.8687 0.86198C11.6313 0.89398 11.3813 0.968646 11.1753 1.17531C10.9693 1.38198 10.894 1.63131 10.862 1.86865C10.8333 2.08398 10.8333 2.34865 10.8333 2.63665V11.3633C10.8333 11.652 10.8333 11.9166 10.862 12.1313C10.894 12.3686 10.9687 12.6186 11.1753 12.8246C11.382 13.0306 11.6313 13.106 11.8687 13.138C12.084 13.1666 12.3487 13.1666 12.6367 13.1666H12.6967C12.9853 13.1666 13.25 13.1666 13.4647 13.138C13.702 13.106 13.952 13.0313 14.158 12.8246C14.364 12.618 14.4393 12.3686 14.4713 12.1313C14.5 11.916 14.5 11.6513 14.5 11.3633V2.63665C14.5 2.34798 14.5 2.08331 14.4713 1.86865C14.4393 1.63131 14.3647 1.38131 14.158 1.17531C13.9513 0.969313 13.702 0.89398 13.4647 0.86198C13.2493 0.833313 12.9847 0.833313 12.6967 0.833313H12.6367ZM11.8833 1.88131L11.882 1.88198L11.8813 1.88398L11.878 1.89065C11.8653 1.92661 11.857 1.964 11.8533 2.00198C11.8347 2.14198 11.8333 2.33798 11.8333 2.66665V11.3333C11.8333 11.662 11.8347 11.858 11.8533 11.998C11.8575 12.0384 11.8669 12.078 11.8813 12.116L11.882 12.118L11.884 12.1186L11.886 12.12L11.8907 12.122C11.9053 12.128 11.9373 12.138 12.002 12.1466C12.142 12.1653 12.338 12.1666 12.6667 12.1666C12.9953 12.1666 13.1913 12.1653 13.3313 12.1466C13.3717 12.1425 13.4114 12.1331 13.4493 12.1186L13.4513 12.118L13.452 12.116L13.4553 12.1093C13.4681 12.0733 13.4764 12.036 13.48 11.998C13.4987 11.858 13.5 11.662 13.5 11.3333V2.66665C13.5 2.33798 13.4987 2.14198 13.48 2.00198C13.4758 1.9616 13.4664 1.92193 13.452 1.88398L13.4513 1.88198L13.4493 1.88131L13.4427 1.87798C13.4067 1.86524 13.3693 1.85695 13.3313 1.85331C13.1913 1.83465 12.9953 1.83331 12.6667 1.83331C12.338 1.83331 12.142 1.83465 12.002 1.85331C11.9616 1.85747 11.9213 1.86689 11.8833 1.88131ZM7.97 2.83331H8.03C8.31867 2.83331 8.58333 2.83331 8.798 2.86198C9.03533 2.89398 9.28533 2.96865 9.49133 3.17531C9.69733 3.38198 9.77267 3.63131 9.80467 3.86865C9.83333 4.08398 9.83333 4.34865 9.83333 4.63665V11.3633C9.83333 11.652 9.83333 11.9166 9.80467 12.1313C9.77267 12.3686 9.698 12.6186 9.49133 12.8246C9.28467 13.0306 9.03533 13.106 8.798 13.138C8.58267 13.1666 8.318 13.1666 8.03 13.1666H7.97C7.682 13.1666 7.41667 13.1666 7.202 13.138C6.96467 13.106 6.71467 13.0313 6.50867 12.8246C6.30267 12.618 6.22733 12.3686 6.19533 12.1313C6.16667 11.916 6.16667 11.6513 6.16667 11.3633V4.63665C6.16667 4.34798 6.16667 4.08331 6.19533 3.86865C6.22733 3.63131 6.302 3.38131 6.50867 3.17531C6.71533 2.96931 6.96467 2.89398 7.202 2.86198C7.41733 2.83331 7.682 2.83331 7.97 2.83331ZM7.21533 3.88198L7.21733 3.88131L7.21533 12.118L7.21467 12.116L7.21133 12.1093C7.19859 12.0733 7.19031 12.036 7.18667 11.998C7.168 11.858 7.16667 11.662 7.16667 11.3333V4.66665C7.16667 4.33798 7.168 4.14198 7.18667 4.00198C7.19083 3.9616 7.20024 3.92193 7.21467 3.88398L7.21533 3.88198ZM7.21533 12.118L7.21733 3.88131L7.21933 3.87998L7.224 3.87798C7.25996 3.86524 7.29735 3.85695 7.33533 3.85331C7.47533 3.83465 7.67133 3.83331 8 3.83331C8.32867 3.83331 8.52467 3.83465 8.66467 3.85331C8.70505 3.85747 8.74472 3.86689 8.78267 3.88131L8.78467 3.88198L8.78533 3.88398L8.78867 3.89065C8.79467 3.90531 8.80467 3.93731 8.81333 4.00198C8.832 4.14198 8.83333 4.33798 8.83333 4.66665V11.3333C8.83333 11.662 8.832 11.858 8.81333 11.998C8.80917 12.0384 8.79976 12.078 8.78533 12.116L8.78467 12.118L8.78267 12.1186L8.776 12.122C8.74004 12.1347 8.70265 12.143 8.66467 12.1466C8.52467 12.1653 8.32867 12.1666 8 12.1666C7.67133 12.1666 7.47533 12.1653 7.33533 12.1466C7.29495 12.1425 7.25528 12.1331 7.21733 12.1186L7.21533 12.118ZM3.30333 5.49998C3.01467 5.49998 2.75 5.49998 2.53533 5.52865C2.298 5.56065 2.048 5.63531 1.842 5.84198C1.636 6.04865 1.56067 6.29798 1.52867 6.53531C1.5 6.75065 1.5 7.01531 1.5 7.30331V11.3633C1.5 11.652 1.5 11.9166 1.52867 12.1313C1.56067 12.3686 1.63533 12.6186 1.842 12.8246C2.04867 13.0306 2.298 13.106 2.53533 13.138C2.75067 13.1666 3.01533 13.1666 3.30333 13.1666H3.36333C3.652 13.1666 3.91667 13.1666 4.13133 13.138C4.36867 13.106 4.61867 13.0313 4.82467 12.8246C5.03067 12.618 5.106 12.3686 5.138 12.1313C5.16667 11.916 5.16667 11.6513 5.16667 11.3633V7.30331C5.16667 7.01465 5.16667 6.74998 5.138 6.53531C5.106 6.29798 5.03133 6.04798 4.82467 5.84198C4.618 5.63598 4.36867 5.56065 4.13133 5.52865C3.916 5.49998 3.65133 5.49998 3.36333 5.49998H3.30333ZM2.55 6.54798L2.54867 6.54865L2.548 6.55065L2.54467 6.55731C2.53192 6.59328 2.52364 6.63067 2.52 6.66865C2.50133 6.80865 2.5 7.00465 2.5 7.33331V11.3333C2.5 11.662 2.50133 11.858 2.52 11.998C2.52416 12.0384 2.53357 12.078 2.548 12.116V12.1173L2.55067 12.1186L2.55733 12.122C2.572 12.128 2.604 12.138 2.66867 12.1466C2.80867 12.1653 3.00467 12.1666 3.33333 12.1666C3.662 12.1666 3.858 12.1653 3.998 12.1466C4.03838 12.1425 4.07805 12.1331 4.116 12.1186L4.118 12.118L4.11867 12.116L4.12 12.1133L4.122 12.1093C4.13474 12.0733 4.14303 12.036 4.14667 11.998C4.16533 11.858 4.16667 11.662 4.16667 11.3333V7.33331C4.16667 7.00465 4.16533 6.80865 4.14667 6.66865C4.14251 6.62826 4.13309 6.58859 4.11867 6.55065L4.118 6.54865L4.116 6.54798L4.10933 6.54465C4.07337 6.5319 4.03598 6.52362 3.998 6.51998C3.858 6.50131 3.662 6.49998 3.33333 6.49998C3.00467 6.49998 2.80867 6.50131 2.66867 6.51998C2.62828 6.52414 2.58795 6.53355 2.55 6.54798Z" fill="#C7C7C7"/>
<path d="M2 14.1667C1.86739 14.1667 1.74021 14.2194 1.64645 14.3131C1.55268 14.4069 1.5 14.5341 1.5 14.6667C1.5 14.7993 1.55268 14.9265 1.64645 15.0202C1.74021 15.114 1.86739 15.1667 2 15.1667H14C14.1326 15.1667 14.2598 15.114 14.3536 15.0202C14.4473 14.9265 14.5 14.7993 14.5 14.6667C14.5 14.5341 14.4473 14.4069 14.3536 14.3131C14.2598 14.2194 14.1326 14.1667 14 14.1667H2Z" fill="#C7C7C7"/>
</svg>
